<svg width="303" height="84" viewBox="0 0 303 84" fill="none" xmlns="http://www.w3.org/2000/svg">
<path d="M0.168 45.216C0.168 39.84 1.224 35.072 3.336 30.912C5.512 26.752 8.456 23.552 12.168 21.312C15.88 19.072 20.008 17.952 24.552 17.952C28.008 17.952 31.304 18.72 34.44 20.256C37.576 21.728 40.072 23.712 41.928 26.208V0.959999H55.56V72H41.928V64.128C40.264 66.752 37.928 68.864 34.92 70.464C31.912 72.064 28.424 72.864 24.456 72.864C19.976 72.864 15.88 71.712 12.168 69.408C8.456 67.104 5.512 63.872 3.336 59.712C1.224 55.488 0.168 50.656 0.168 45.216ZM42.024 45.408C42.024 42.144 41.384 39.36 40.104 37.056C38.824 34.688 37.096 32.896 34.92 31.68C32.744 30.4 30.408 29.76 27.912 29.76C25.416 29.76 23.112 30.368 21 31.584C18.888 32.8 17.16 34.592 15.816 36.96C14.536 39.264 13.896 42.016 13.896 45.216C13.896 48.416 14.536 51.232 15.816 53.664C17.16 56.032 18.888 57.856 21 59.136C23.176 60.416 25.48 61.056 27.912 61.056C30.408 61.056 32.744 60.448 34.92 59.232C37.096 57.952 38.824 56.16 40.104 53.856C41.384 51.488 42.024 48.672 42.024 45.408ZM65.2305 45.216C65.2305 39.84 66.2865 35.072 68.3985 30.912C70.5745 26.752 73.4865 23.552 77.1345 21.312C80.8465 19.072 84.9745 17.952 89.5185 17.952C93.4865 17.952 96.9425 18.752 99.8865 20.352C102.895 21.952 105.295 23.968 107.087 26.4V18.816H120.623V72H107.087V64.224C105.359 66.72 102.959 68.8 99.8865 70.464C96.8785 72.064 93.3905 72.864 89.4225 72.864C84.9425 72.864 80.8465 71.712 77.1345 69.408C73.4865 67.104 70.5745 63.872 68.3985 59.712C66.2865 55.488 65.2305 50.656 65.2305 45.216ZM107.087 45.408C107.087 42.144 106.447 39.36 105.167 37.056C103.887 34.688 102.159 32.896 99.9825 31.68C97.8065 30.4 95.4705 29.76 92.9745 29.76C90.4785 29.76 88.1745 30.368 86.0625 31.584C83.9505 32.8 82.2225 34.592 80.8785 36.96C79.5985 39.264 78.9585 42.016 78.9585 45.216C78.9585 48.416 79.5985 51.232 80.8785 53.664C82.2225 56.032 83.9505 57.856 86.0625 59.136C88.2385 60.416 90.5425 61.056 92.9745 61.056C95.4705 61.056 97.8065 60.448 99.9825 59.232C102.159 57.952 103.887 56.16 105.167 53.856C106.447 51.488 107.087 48.672 107.087 45.408ZM149.397 29.856V55.584C149.397 57.376 149.813 58.688 150.645 59.52C151.541 60.288 153.013 60.672 155.061 60.672H161.301V72H152.853C141.525 72 135.861 66.496 135.861 55.488V29.856H129.525V18.816H135.861V5.664H149.397V18.816H161.301V29.856H149.397ZM167.512 45.216C167.512 39.84 168.568 35.072 170.68 30.912C172.856 26.752 175.768 23.552 179.416 21.312C183.128 19.072 187.256 17.952 191.8 17.952C195.768 17.952 199.224 18.752 202.168 20.352C205.176 21.952 207.576 23.968 209.368 26.4V18.816H222.904V72H209.368V64.224C207.64 66.72 205.24 68.8 202.168 70.464C199.16 72.064 195.672 72.864 191.704 72.864C187.224 72.864 183.128 71.712 179.416 69.408C175.768 67.104 172.856 63.872 170.68 59.712C168.568 55.488 167.512 50.656 167.512 45.216ZM209.368 45.408C209.368 42.144 208.728 39.36 207.448 37.056C206.168 34.688 204.44 32.896 202.264 31.68C200.088 30.4 197.752 29.76 195.256 29.76C192.76 29.76 190.456 30.368 188.344 31.584C186.232 32.8 184.504 34.592 183.16 36.96C181.88 39.264 181.24 42.016 181.24 45.216C181.24 48.416 181.88 51.232 183.16 53.664C184.504 56.032 186.232 57.856 188.344 59.136C190.52 60.416 192.824 61.056 195.256 61.056C197.752 61.056 200.088 60.448 202.264 59.232C204.44 57.952 206.168 56.16 207.448 53.856C208.728 51.488 209.368 48.672 209.368 45.408Z" fill="url(#paint0_linear_24_85)"/>
<path d="M285.95 83.808L275.774 71.616C272.958 72.32 270.078 72.672 267.134 72.672C260.862 72.672 255.102 71.2 249.854 68.256C244.606 65.312 240.446 61.248 237.374 56.064C234.302 50.816 232.766 44.896 232.766 38.304C232.766 31.776 234.302 25.92 237.374 20.736C240.446 15.488 244.606 11.392 249.854 8.44799C255.102 5.504 260.862 4.032 267.134 4.032C273.47 4.032 279.23 5.504 284.414 8.44799C289.662 11.392 293.79 15.488 296.798 20.736C299.87 25.92 301.406 31.776 301.406 38.304C301.406 44.256 300.126 49.696 297.566 54.624C295.07 59.488 291.646 63.456 287.294 66.528L302.654 83.808H285.95ZM246.59 38.304C246.59 42.784 247.454 46.72 249.182 50.112C250.91 53.504 253.31 56.128 256.382 57.984C259.518 59.776 263.102 60.672 267.134 60.672C271.166 60.672 274.718 59.776 277.79 57.984C280.862 56.128 283.262 53.504 284.99 50.112C286.718 46.72 287.582 42.784 287.582 38.304C287.582 33.824 286.718 29.92 284.99 26.592C283.262 23.2 280.862 20.608 277.79 18.816C274.718 17.024 271.166 16.128 267.134 16.128C263.102 16.128 259.518 17.024 256.382 18.816C253.31 20.608 250.91 23.2 249.182 26.592C247.454 29.92 246.59 33.824 246.59 38.304Z" fill="black"/>
<defs>
<linearGradient id="paint0_linear_24_85" x1="-21.5" y1="52" x2="253.5" y2="52" gradientUnits="userSpaceOnUse">
<stop stop-color="#0061FF"/>
<stop offset="1" stop-color="#60EFFF"/>
</linearGradient>
</defs>
</svg>
